# xmcd
#
# Track frame offsets:
#	150
#	20448
#	33356
#	46281
#	65676
#	84469
#	102341
#	121853
#	138773
#	158030
#	179151
#	196220
#	225393
#	242846
#
# Disc length: 3504 seconds
#
# Revision: 1
# Processed by: cddbd v1.5.2PL0 Copyright (c) Steve Scherf et al.
# Submitted via: audiograbber 1.83.01
#
DISCID=b30dae0e
DTITLE=Moonshine Bandits - Whiskey And Women
DYEAR=2011
DGENRE=Country
TTITLE0=For The Outlawz
TTITLE1=Whiskey River
TTITLE2=Shine With Me
TTITLE3=My Kind of Country
TTITLE4=Whiskey In My Soul
TTITLE5=Fire It Up
TTITLE6=Summer Girl
TTITLE7=Banos, Los
TTITLE8=Whiskey and Cigarettes
TTITLE9=Moonshine On Me
TTITLE10=American Pride
TTITLE11=Dash Fulla Cowboy Hats
TTITLE12=Get Loose
TTITLE13=My Super Goggles
EXTD=
EXTT0=
EXTT1=
EXTT2=
EXTT3=
EXTT4=
EXTT5=
EXTT6=
EXTT7=
EXTT8=
EXTT9=
EXTT10=
EXTT11=
EXTT12=
EXTT13=
PLAYORDER=
